<?xml version="1.0" standalone="no"?>
<!DOCTYPE svg PUBLIC "-//W3C//DTD SVG 20010904//EN"
 "http://www.w3.org/TR/2001/REC-SVG-20010904/DTD/svg10.dtd">
<svg version="1.0" xmlns="http://www.w3.org/2000/svg"
 width="200.000000pt" height="200.000000pt" viewBox="0 0 200.000000 200.000000"
 preserveAspectRatio="xMidYMid meet">
<metadata>
Created by potrace 1.11, written by Peter Selinger 2001-2013
</metadata>
<g transform="translate(0.000000,200.000000) scale(0.100000,-0.100000)"
fill="#000000" stroke="none">
<path d="M0 1000 l0 -1000 1000 0 1000 0 0 1000 0 1000 -1000 0 -1000 0 0
-1000z m748 390 l52 -22 0 -71 0 -70 -22 20 c-85 78 -249 85 -288 14 -32 -60
9 -115 151 -202 108 -67 160 -118 177 -178 47 -155 -52 -290 -211 -291 -56 0
-58 1 -51 23 15 48 35 77 55 77 28 0 75 26 93 52 43 61 6 131 -109 204 -180
117 -220 164 -220 264 1 90 62 172 151 200 49 16 164 5 222 -20z m-253 -645
c35 -34 33 -78 -4 -116 -18 -17 -40 -29 -56 -29 -38 0 -85 50 -85 90 0 44 39
80 85 80 25 0 44 -8 60 -25z"/>
<path d="M400 715 c-28 -34 12 -85 54 -69 22 8 31 50 16 69 -16 19 -54 19 -70
0z"/>
</g>
</svg>
