<?xml version="1.0" encoding="UTF-8"?>
<svg width="295px" height="146px" viewBox="0 0 295 146" version="1.1" xmlns="http://www.w3.org/2000/svg" xmlns:xlink="http://www.w3.org/1999/xlink">
    <!-- Generator: Sketch 61.2 (89653) - https://sketch.com -->
    <title>Artboard</title>
    <desc>Created with Sketch.</desc>
    <g id="Artboard" stroke="none" stroke-width="1" fill="none" fill-rule="evenodd">
        <g id="StationDrop_Logo_WhiteBackground" transform="translate(1.000000, 1.000000)">
            <g id="Group" transform="translate(0.000000, 19.000000)" fill="#183860" fill-rule="nonzero">
                <path d="M150.7,6.5 C151.8,6.5 152.6,7.4 152.6,8.4 C152.6,9.5 151.7,10.3 150.7,10.3 C149.6,10.3 148.8,9.4 148.8,8.4 C148.8,7.4 149.6,6.5 150.7,6.5 M150.7,4.9 C148.8,4.9 147.2,6.5 147.2,8.4 C147.2,10.3 148.8,11.9 150.7,11.9 C152.6,11.9 154.2,10.3 154.2,8.4 C154.2,6.5 152.6,4.9 150.7,4.9 L150.7,4.9 Z" id="Shape"></path>
                <path d="M166.1,31.1 C167.2,31.1 168,32 168,33 C168,34.1 167.1,34.9 166.1,34.9 C165,34.9 164.2,34 164.2,33 C164.2,32 165.1,31.1 166.1,31.1 M166.1,29.5 C164.2,29.5 162.6,31.1 162.6,33 C162.6,34.9 164.2,36.5 166.1,36.5 C168,36.5 169.6,34.9 169.6,33 C169.6,31.1 168.1,29.5 166.1,29.5 L166.1,29.5 Z" id="Shape"></path>
                <path d="M64.3,21.5 C65.4,21.5 66.2,22.4 66.2,23.4 C66.2,24.5 65.3,25.3 64.3,25.3 C63.3,25.3 62.4,24.4 62.4,23.4 C62.3,22.4 63.2,21.5 64.3,21.5 M64.3,19.9 C62.4,19.9 60.8,21.5 60.8,23.4 C60.8,25.3 62.4,26.9 64.3,26.9 C66.2,26.9 67.8,25.3 67.8,23.4 C67.8,21.5 66.2,19.9 64.3,19.9 L64.3,19.9 Z" id="Shape"></path>
                <path d="M3.5,29.8 C4.6,29.8 5.4,30.7 5.4,31.7 C5.4,32.7 4.5,33.6 3.5,33.6 C2.4,33.6 1.6,32.7 1.6,31.7 C1.6,30.7 2.5,29.8 3.5,29.8 M3.5,28.2 C1.6,28.2 0,29.8 0,31.7 C0,33.6 1.6,35.2 3.5,35.2 C5.4,35.2 7,33.6 7,31.7 C7,29.8 5.5,28.2 3.5,28.2 L3.5,28.2 Z" id="Shape"></path>
                <path d="M103.2,2.2 C104.3,2.2 105.1,3.1 105.1,4.1 C105.1,5.2 104.2,6 103.2,6 C102.2,6 101.3,5.1 101.3,4.1 C101.3,3 102.2,2.2 103.2,2.2 M103.2,0.6 C101.3,0.6 99.7,2.2 99.7,4.1 C99.7,6 101.3,7.6 103.2,7.6 C105.1,7.6 106.7,6 106.7,4.1 C106.7,2.2 105.2,0.6 103.2,0.6 L103.2,0.6 Z" id="Shape"></path>
                <path d="M48.8,2.2 C49.9,2.2 50.7,3.1 50.7,4.1 C50.7,5.2 49.8,6 48.8,6 C47.8,6 46.9,5.1 46.9,4.1 C46.9,3 47.7,2.2 48.8,2.2 M48.8,0.6 C46.9,0.6 45.3,2.2 45.3,4.1 C45.3,6 46.9,7.6 48.8,7.6 C50.7,7.6 52.3,6 52.3,4.1 C52.3,2.2 50.7,0.6 48.8,0.6 L48.8,0.6 Z" id="Shape"></path>
                <path d="M151.4,14 C152.6,17 152.6,20.2 151.4,23.2 C150.2,26.2 147.9,28.5 144.9,29.7 C141.9,30.9 138.7,30.9 135.7,29.7 C132.7,28.5 130.4,26.2 129.2,23.2 C128,20.2 128,17 129.2,14 C130.4,11 132.7,8.7 135.7,7.5 C138.7,6.3 141.9,6.3 144.9,7.5 L146.8,2.9 C144.7,2 142.5,1.6 140.3,1.6 C138.1,1.6 135.9,2 133.8,2.9 C129.6,4.6 126.3,7.9 124.6,12.1 C122.9,16.3 122.9,20.9 124.6,25.1 C126.3,29.3 129.6,32.6 133.8,34.3 C138,36 142.6,36 146.8,34.3 C151,32.6 154.3,29.3 156,25.1 C157.7,20.9 157.7,16.3 156,12.1 L151.4,14 Z" id="Path"></path>
                <polygon id="Path" points="62.5 1.8 48.1 35.4 53 35.4 57.2 25.5 59.1 21.3 64.1 9.2 69.5 21.3 71.5 25.5 75.9 35.4 80.8 35.4 65.8 1.8"></polygon>
                <rect id="Rectangle" x="111.2" y="2" width="4.8" height="33.4"></rect>
                <polygon id="Path" points="190.3 2 190.3 27.1 168 2 167.8 2 163.9 2 163.9 5.2 163.9 27.3 168.4 27.3 168.4 10.3 190.7 35.4 191 35.4 194.9 35.4 194.9 32.3 194.9 2"></polygon>
                <polygon id="Path" points="80.7 2 77.7 2 77.7 6.2 85.5 6.2 89.2 6.2 89.2 35.4 94 35.4 94 6.2 97.5 6.2 97.5 2 94 2"></polygon>
                <polygon id="Path" points="26.2 2 23.2 2 23.2 6.2 31.1 6.2 34.7 6.2 34.7 35.4 39.5 35.4 39.5 6.2 43 6.2 43 2 39.5 2"></polygon>
                <path d="M13.7,17.5 L10,15.3 C8.4,14.3 7.2,13.4 6.4,12.5 C5.7,11.6 5.3,10.7 5.3,9.7 C5.3,8.6 5.8,7.6 6.8,6.9 C7.8,6.2 9.1,5.8 10.7,5.8 C13.5,5.8 16.1,7 18.5,9.3 L18.5,3.9 C16.2,2.3 13.6,1.5 10.8,1.5 C7.9,1.5 5.5,2.3 3.7,4 C1.9,5.7 1,7.8 1,10.4 C1,12.2 1.5,13.7 2.4,15.1 C3.4,16.4 5,17.8 7.3,19.2 L10.9,21.4 C13.8,23.2 15.3,25.2 15.3,27.2 C15.3,28.5 14.8,29.5 13.8,30.3 C12.8,31.1 11.6,31.6 10.1,31.6 C10,31.6 9.9,31.6 9.8,31.6 L8,35.7 C8.7,35.8 9.4,35.8 10.1,35.8 C13,35.8 15.3,35 17.1,33.3 C18.9,31.6 19.8,29.4 19.8,26.8 C19.8,23 17.8,19.9 13.7,17.5 Z" id="Path"></path>
            </g>
            <g id="Group" transform="translate(70.000000, 63.000000)" fill="#EA8F00" fill-rule="nonzero">
                <path d="M106.2,8.5 C107.3,8.5 108.1,9.4 108.1,10.4 C108.1,11.4 107.2,12.3 106.2,12.3 C105.2,12.3 104.3,11.4 104.3,10.4 C104.3,9.4 105.1,8.5 106.2,8.5 M106.2,6.9 C104.3,6.9 102.7,8.5 102.7,10.4 C102.7,12.3 104.3,13.9 106.2,13.9 C108.1,13.9 109.7,12.3 109.7,10.4 C109.7,8.5 108.1,6.9 106.2,6.9 L106.2,6.9 Z" id="Shape"></path>
                <path d="M103.8,15.6 L113.8,15.6 C115.7,15.6 117.2,15.1 118.3,14.2 C119.4,13.3 119.9,12 119.9,10.3 C119.9,6.9 117.8,5.2 113.5,5.2 L103.7,5.2 L103.7,0.9 L114.3,0.9 C117.5,0.9 120,1.8 121.9,3.5 C123.8,5.2 124.7,7.5 124.7,10.4 C124.7,12.3 124.2,14.1 123.2,15.6 C122.2,17.1 120.9,18.2 119.2,18.9 C117.5,19.6 115.1,19.9 111.9,19.9 L108.4,19.9 L108.4,34.4 L103.6,34.4 L103.6,15.6 L103.8,15.6 Z" id="Path"></path>
                <g transform="translate(63.000000, 0.000000)">
                    <path d="M6.7,25.7 C7.8,25.7 8.6,26.6 8.6,27.6 C8.6,28.6 7.7,29.5 6.7,29.5 C5.6,29.5 4.8,28.6 4.8,27.6 C4.8,26.6 5.7,25.7 6.7,25.7 M6.7,24.1 C4.8,24.1 3.2,25.7 3.2,27.6 C3.2,29.5 4.8,31.1 6.7,31.1 C8.6,31.1 10.2,29.5 10.2,27.6 C10.2,25.7 8.7,24.1 6.7,24.1 L6.7,24.1 Z" id="Shape"></path>
                    <path d="M17.1,34.5 C14.9,34.5 12.7,34.1 10.6,33.2 L12.5,28.6 C15.5,29.8 18.7,29.8 21.7,28.6 C24.7,27.4 27,25.1 28.2,22.1 C29.4,19.1 29.4,15.9 28.2,12.9 C27,9.9 24.7,7.6 21.7,6.4 C18.7,5.2 15.5,5.2 12.5,6.4 C9.5,7.6 7.2,9.9 6,12.9 C4.8,15.9 4.8,19.1 6,22.1 L1.4,24 C-0.3,19.8 -0.3,15.2 1.4,11 C3.1,6.8 6.4,3.5 10.6,1.8 C14.8,0.1 19.4,0.1 23.6,1.8 C27.8,3.5 31.1,6.8 32.8,11 C34.5,15.2 34.5,19.8 32.8,24 C31.1,28.2 27.8,31.5 23.6,33.2 C21.5,34.1 19.3,34.5 17.1,34.5 Z" id="Path"></path>
                </g>
                <path d="M24.3,5.5 C25.4,5.5 26.2,6.4 26.2,7.4 C26.2,8.4 25.3,9.3 24.3,9.3 C23.2,9.3 22.4,8.4 22.4,7.4 C22.4,6.4 23.3,5.5 24.3,5.5 M24.3,3.9 C22.4,3.9 20.8,5.5 20.8,7.4 C20.8,9.3 22.4,10.9 24.3,10.9 C26.2,10.9 27.8,9.3 27.8,7.4 C27.8,5.5 26.3,3.9 24.3,3.9 L24.3,3.9 Z" id="Shape"></path>
                <path d="M18.6,6.3 C17.7,5.9 16.8,5.7 16,5.5 C15,5.3 13.3,5.2 11,5.2 L5,5.2 L5,30.1 L11.1,30.1 C13.5,30.1 15.4,29.9 16.7,29.6 C18,29.3 19.1,28.9 20,28.4 C20.9,27.9 21.7,27.3 22.4,26.5 C24.8,24.1 25.9,21.1 25.9,17.4 C25.9,15.9 25.7,14.4 25.2,13.1 C25.2,13 29.5,11 29.5,11 C30.4,13.1 30.8,15.3 30.8,17.7 C30.8,19.9 30.4,22.1 29.5,24.1 C28.6,26.1 27.4,27.9 25.8,29.5 C24.2,31.1 22.3,32.3 20.1,33.1 C18.8,33.6 17.7,33.9 16.6,34.1 C15.5,34.3 13.5,34.4 10.6,34.4 L0.3,34.4 L0.3,1 L11.6,1 C15,1 17.9,1.4 20.2,2.2" id="Path"></path>
                <path d="M36.8,26.2 L36.8,1 L45.2,1 C48.6,1 51.3,1.8 53.3,3.5 C55.3,5.2 56.3,7.4 56.3,10.3 C56.3,12.2 55.8,13.9 54.8,15.4 C53.8,16.8 52.4,17.9 50.6,18.6 C51.7,19.3 52.7,20.3 53.7,21.5 C54.7,22.7 56.2,24.8 58,27.8 C59.2,29.7 60.1,31.1 60.8,32.1 L62.6,34.5 L56.9,34.5 L55.4,32.3 C55.4,32.2 55.3,32.1 55.1,31.9 L54.2,30.6 L52.7,28.2 L51.1,25.6 C50.1,24.2 49.2,23.1 48.4,22.3 C47.6,21.5 46.8,20.9 46.2,20.5 C45.5,20.1 44.4,20 42.9,20 L41.7,20 L41.7,26.4 L36.8,26.4 L36.8,26.2 Z M43,5 L41.6,5 L41.6,15.6 L43.4,15.6 C45.8,15.6 47.5,15.4 48.4,15 C49.3,14.6 50,14 50.5,13.1 C51,12.3 51.3,11.3 51.3,10.2 C51.3,9.1 51,8.2 50.5,7.3 C49.9,6.4 49.2,5.8 48.1,5.5 C47,5.2 45.4,5 43,5 Z" id="Shape"></path>
                <path d="M39.2,30.1 C40.3,30.1 41.1,31 41.1,32 C41.1,33.1 40.2,33.9 39.2,33.9 C38.1,33.9 37.3,33 37.3,32 C37.3,30.9 38.1,30.1 39.2,30.1 M39.2,28.5 C37.3,28.5 35.7,30.1 35.7,32 C35.7,33.9 37.3,35.5 39.2,35.5 C41.1,35.5 42.7,33.9 42.7,32 C42.7,30.1 41.1,28.5 39.2,28.5 L39.2,28.5 Z" id="Shape"></path>
            </g>
            <polyline id="Path" stroke="#EA8F00" stroke-width="4" points="59 0 209 0 218.8 0 218.8 38.5"></polyline>
            <line x1="93.1" y1="125" x2="70.7" y2="125" id="Path" stroke="#EA8F00" stroke-width="4"></line>
            <line x1="59" y1="85" x2="15.4" y2="85" id="Path" stroke="#EA8F00" stroke-width="4"></line>
            <line x1="59" y1="75.9" x2="1" y2="75.9" id="Path" stroke="#EA8F00" stroke-width="4"></line>
            <line x1="59" y1="95.2" x2="30.6" y2="95.2" id="Path" stroke="#EA8F00" stroke-width="4"></line>
            <line x1="59" y1="66.1" x2="35.4" y2="66.1" id="Path" stroke="#EA8F00" stroke-width="4"></line>
            <circle id="Oval" stroke="#EA8F00" stroke-width="4" cx="117.4" cy="125" r="14.7"></circle>
            <circle id="Oval" stroke="#EA8F00" stroke-width="4" cx="245.8" cy="125" r="14.7"></circle>
            <polyline id="Path" stroke="#EA8F00" stroke-width="4" points="270.7 125 283.6 125 288.4 125 288.4 98.2 288.4 86.2 262.7 54.4 258 54.4 218.8 54.4 218.8 125 141.8 125"></polyline>
        </g>
    </g>
</svg>