<?xml version="1.0" encoding="UTF-8"?>
<svg width="321px" height="52px" viewBox="0 0 321 52" version="1.1" xmlns="http://www.w3.org/2000/svg" xmlns:xlink="http://www.w3.org/1999/xlink">
    <!-- Generator: Sketch 64 (93537) - https://sketch.com -->
    <title>stationhopLogo</title>
    <desc>Created with Sketch.</desc>
    <defs>
        <polygon id="path-1" points="0 596 841.89 596 841.89 0.725 0 0.725"></polygon>
    </defs>
    <g id="stationhopLogo" stroke="none" stroke-width="1" fill="none" fill-rule="evenodd">
        <g id="Group-53" transform="translate(-261.000000, -272.000000)">
            <path d="M480.7699,280.7829 C478.8309,280.7829 477.2529,282.3609 477.2529,284.2999 C477.2529,286.2389 478.8309,287.8169 480.7699,287.8169 C482.7089,287.8169 484.2869,286.2389 484.2869,284.2999 C484.2869,282.3609 482.7089,280.7829 480.7699,280.7829 M480.7699,282.3839 C481.8279,282.3839 482.6859,283.2419 482.6859,284.2999 C482.6859,285.3579 481.8279,286.2149 480.7699,286.2149 C479.7109,286.2149 478.8539,285.3579 478.8539,284.2999 C478.8539,283.2419 479.7109,282.3839 480.7699,282.3839" id="Fill-19" fill="#009C5D"></path>
            <path d="M555.6272,287.8238 C553.6872,287.8238 552.1092,289.4018 552.1092,291.3408 C552.1092,293.2798 553.6872,294.8578 555.6272,294.8578 C557.5652,294.8578 559.1442,293.2798 559.1442,291.3408 C559.1442,289.4018 557.5652,287.8238 555.6272,287.8238 M555.6272,289.4248 C556.6852,289.4248 557.5422,290.2828 557.5422,291.3408 C557.5422,292.3988 556.6852,293.2558 555.6272,293.2558 C554.5682,293.2558 553.7112,292.3988 553.7112,291.3408 C553.7112,290.2828 554.5682,289.4248 555.6272,289.4248" id="Fill-21" fill="#009C5D"></path>
            <polygon id="Fill-23" fill="#009C5D" points="501.9618 281.9055 501.9618 296.3685 483.1648 296.3685 483.1648 290.0665 478.3758 290.0665 478.3758 296.3685 478.3758 315.3565 483.1648 315.3565 483.1648 300.7975 501.9618 300.7975 501.9618 315.3565 506.7508 315.3565 506.7508 296.3685 506.7508 281.9055"></polygon>
            <path d="M553.2326,296.5838 L563.2896,296.5838 C565.2366,296.5838 566.7376,296.1258 567.7916,295.2068 C568.8456,294.2888 569.3706,292.9768 569.3706,291.2678 C569.3706,287.8358 567.2476,286.1198 563.0026,286.1198 L553.2326,286.1198 L553.2326,281.8578 L563.8406,281.8578 C567.0326,281.8578 569.5786,282.7198 571.4776,284.4438 C573.3776,286.1678 574.3276,288.4818 574.3276,291.3878 C574.3276,293.3348 573.8416,295.0598 572.8676,296.5598 C571.8936,298.0608 570.5596,299.1498 568.8686,299.8288 C567.1766,300.5058 564.7496,300.8448 561.5896,300.8448 L558.0456,300.8448 L558.0456,315.3558 L553.2326,315.3558 L553.2326,296.5838 Z" id="Fill-25" fill="#009C5D"></path>
            <path d="M519.1769,305.0922 C517.2379,305.0922 515.6599,306.6692 515.6599,308.6092 C515.6599,310.5472 517.2379,312.1252 519.1769,312.1252 C521.1159,312.1252 522.6939,310.5472 522.6939,308.6092 C522.6939,306.6692 521.1159,305.0922 519.1769,305.0922 M519.1769,306.6932 C520.2349,306.6932 521.0919,307.5512 521.0919,308.6092 C521.0919,309.6672 520.2349,310.5242 519.1769,310.5242 C518.1179,310.5242 517.2609,309.6672 517.2609,308.6092 C517.2609,307.5512 518.1179,306.6932 519.1769,306.6932" id="Fill-27" fill="#009C5D"></path>
            <path d="M529.4918,315.4735 C527.2908,315.4735 525.0898,315.0395 522.9948,314.1725 L524.9078,309.5485 C527.8638,310.7725 531.1208,310.7725 534.0788,309.5475 C537.0368,308.3215 539.3418,306.0175 540.5668,303.0595 C541.7928,300.1015 541.7928,296.8425 540.5668,293.8845 C539.3418,290.9255 537.0378,288.6205 534.0798,287.3955 C531.1188,286.1705 527.8608,286.1695 524.9038,287.3955 C521.9458,288.6205 519.6408,290.9255 518.4158,293.8845 C517.1898,296.8425 517.1898,300.1015 518.4158,303.0595 L513.7918,304.9755 C512.0548,300.7805 512.0548,296.1625 513.7918,291.9685 C515.5298,287.7755 518.7948,284.5095 522.9888,282.7735 C527.1808,281.0355 531.8018,281.0345 535.9938,282.7735 C540.1888,284.5095 543.4528,287.7765 545.1908,291.9695 C546.9278,296.1615 546.9278,300.7805 545.1908,304.9755 C543.4528,309.1675 540.1878,312.4345 535.9938,314.1705 C533.8978,315.0385 531.6948,315.4735 529.4918,315.4735" id="Fill-29" fill="#009C5D"></path>
            <path d="M417.3925,284.818 C415.4535,284.818 413.8755,286.395 413.8755,288.335 C413.8755,290.274 415.4535,291.852 417.3925,291.852 C419.3325,291.852 420.9095,290.274 420.9095,288.335 C420.9095,286.395 419.3325,284.818 417.3925,284.818 M417.3925,286.419 C418.4505,286.419 419.3075,287.277 419.3075,288.335 C419.3075,289.393 418.4505,290.25 417.3925,290.25 C416.3345,290.25 415.4765,289.393 415.4765,288.335 C415.4765,287.277 416.3345,286.419 417.3925,286.419" id="Fill-31" fill="#004365"></path>
            <path d="M432.8386,309.4453 C430.8996,309.4453 429.3216,311.0223 429.3216,312.9623 C429.3216,314.9013 430.8996,316.4793 432.8386,316.4793 C434.7776,316.4793 436.3556,314.9013 436.3556,312.9623 C436.3556,311.0223 434.7776,309.4453 432.8386,309.4453 M432.8386,311.0463 C433.8966,311.0463 434.7546,311.9043 434.7546,312.9623 C434.7546,314.0203 433.8966,314.8773 432.8386,314.8773 C431.7796,314.8773 430.9226,314.0203 430.9226,312.9623 C430.9226,311.9043 431.7796,311.0463 432.8386,311.0463" id="Fill-33" fill="#004365"></path>
            <path d="M330.8921,299.8281 C328.9521,299.8281 327.3751,301.4051 327.3751,303.3451 C327.3751,305.2831 328.9521,306.8621 330.8921,306.8621 C332.8311,306.8621 334.4091,305.2831 334.4091,303.3451 C334.4091,301.4051 332.8311,299.8281 330.8921,299.8281 M330.8921,301.4291 C331.9501,301.4291 332.8071,302.2871 332.8071,303.3451 C332.8071,304.4031 331.9501,305.2601 330.8921,305.2601 C329.8341,305.2601 328.9761,304.4031 328.9761,303.3451 C328.9761,302.2871 329.8341,301.4291 330.8921,301.4291" id="Fill-35" fill="#004365"></path>
            <path d="M270.0989,308.1043 C268.1599,308.1043 266.5819,309.6823 266.5819,311.6223 C266.5819,313.5603 268.1599,315.1383 270.0989,315.1383 C272.0379,315.1383 273.6159,313.5603 273.6159,311.6223 C273.6159,309.6823 272.0379,308.1043 270.0989,308.1043 M270.0989,309.7063 C271.1569,309.7063 272.0149,310.5633 272.0149,311.6223 C272.0149,312.6793 271.1569,313.5373 270.0989,313.5373 C269.0409,313.5373 268.1829,312.6793 268.1829,311.6223 C268.1829,310.5633 269.0409,309.7063 270.0989,309.7063" id="Fill-37" fill="#004365"></path>
            <path d="M369.9128,280.4644 C367.9738,280.4644 366.3958,282.0414 366.3958,283.9814 C366.3958,285.9204 367.9738,287.4984 369.9128,287.4984 C371.8518,287.4984 373.4298,285.9204 373.4298,283.9814 C373.4298,282.0414 371.8518,280.4644 369.9128,280.4644 M369.9128,282.0654 C370.9708,282.0654 371.8288,282.9234 371.8288,283.9814 C371.8288,285.0394 370.9708,285.8964 369.9128,285.8964 C368.8548,285.8964 367.9968,285.0394 367.9968,283.9814 C367.9968,282.9234 368.8548,282.0654 369.9128,282.0654" id="Fill-39" fill="#004365"></path>
            <path d="M315.3996,280.4644 C313.4606,280.4644 311.8826,282.0414 311.8826,283.9814 C311.8826,285.9204 313.4606,287.4984 315.3996,287.4984 C317.3386,287.4984 318.9166,285.9204 318.9166,283.9814 C318.9166,282.0414 317.3386,280.4644 315.3996,280.4644 M315.3996,282.0654 C316.4576,282.0654 317.3156,282.9234 317.3156,283.9814 C317.3156,285.0394 316.4576,285.8964 315.3996,285.8964 C314.3416,285.8964 313.4836,285.0394 313.4836,283.9814 C313.4836,282.9234 314.3416,282.0654 315.3996,282.0654" id="Fill-41" fill="#004365"></path>
            <path d="M418.1538,293.8843 C419.3798,296.8423 419.3798,300.1003 418.1538,303.0583 C416.9278,306.0183 414.6238,308.3223 411.6658,309.5483 C408.7078,310.7733 405.4508,310.7733 402.4898,309.5483 C399.5318,308.3223 397.2278,306.0183 396.0018,303.0583 C394.7768,300.1003 394.7768,296.8423 396.0018,293.8843 C397.2278,290.9253 399.5328,288.6213 402.4908,287.3963 C405.4488,286.1703 408.7058,286.1713 411.6618,287.3943 L413.5748,282.7703 C411.4798,281.9033 409.2788,281.4703 407.0778,281.4703 C404.8738,281.4703 402.6708,281.9043 400.5758,282.7723 C396.3818,284.5093 393.1158,287.7753 391.3788,291.9693 C389.6418,296.1623 389.6418,300.7813 391.3788,304.9743 C393.1158,309.1673 396.3808,312.4343 400.5758,314.1703 C404.7678,315.9083 409.3878,315.9073 413.5808,314.1703 C417.7738,312.4343 421.0398,309.1673 422.7768,304.9753 C424.5138,300.7813 424.5138,296.1623 422.7768,291.9693 L418.1538,293.8843 Z" id="Fill-43" fill="#004365"></path>
            <polygon id="Fill-45" fill="#004365" points="329.0923 281.7139 314.7243 315.3559 319.6453 315.3559 323.8263 305.4429 325.7263 301.1809 330.7313 289.0649 336.1293 301.1809 338.0973 305.4429 342.5563 315.3559 347.4573 315.3559 332.4583 281.7139"></polygon>
            <mask id="mask-2" fill="white">
                <use xlink:href="#path-1"></use>
            </mask>
            <g id="Clip-48"></g>
            <polygon id="Fill-47" fill="#004365" mask="url(#mask-2)" points="377.882 315.356 382.671 315.356 382.671 281.905 377.882 281.905"></polygon>
            <polygon id="Fill-49" fill="#004365" mask="url(#mask-2)" points="457.0446 281.9055 457.0446 307.0575 434.7276 281.9055 434.4886 281.9055 430.6096 281.9055 430.6096 285.0775 430.6096 307.1905 435.1586 307.1905 435.1586 290.2045 457.4756 315.3565 457.7156 315.3565 461.5946 315.3565 461.5946 312.1845 461.5946 281.9055"></polygon>
            <polygon id="Fill-50" fill="#004365" mask="url(#mask-2)" points="347.3658 281.8576 344.3638 281.8576 344.3638 286.1196 352.1788 286.1196 355.8328 286.1196 355.8328 315.3566 360.6468 315.3566 360.6468 286.1196 364.1578 286.1196 364.1578 281.8576 360.6468 281.8576"></polygon>
            <polygon id="Fill-51" fill="#004365" mask="url(#mask-2)" points="292.8526 281.8576 289.8506 281.8576 289.8506 286.1196 297.6656 286.1196 301.3196 286.1196 301.3196 315.3566 306.1336 315.3566 306.1336 286.1196 309.6446 286.1196 309.6446 281.8576 306.1336 281.8576"></polygon>
            <path d="M280.3107,297.3823 L276.6527,295.2173 C275.0117,294.2553 273.8207,293.3373 273.0787,292.4623 C272.3387,291.5883 271.9677,290.6503 271.9677,289.6483 C271.9677,288.5203 272.4717,287.5933 273.4757,286.8703 C274.4817,286.1463 275.7667,285.7853 277.3317,285.7853 C280.1097,285.7853 282.7037,286.9443 285.1137,289.2623 L285.1137,283.8273 C282.7827,282.2593 280.2207,281.4743 277.4277,281.4743 C274.5057,281.4743 272.1317,282.2973 270.3037,283.9403 C268.4757,285.5843 267.5627,287.7243 267.5627,290.3573 C267.5627,292.1143 268.0447,293.6663 269.0107,295.0153 C269.9767,296.3643 271.6007,297.7353 273.8837,299.1293 L277.5237,301.3413 C280.4597,303.1683 281.9287,305.0983 281.9287,307.1353 C281.9287,308.3913 281.4307,309.4373 280.4327,310.2723 C279.4347,311.1073 278.1847,311.5243 276.6847,311.5243 C276.5967,311.5243 276.5107,311.5113 276.4227,311.5083 L274.6587,315.5933 C275.3427,315.6903 276.0367,315.7393 276.7327,315.7393 C279.6057,315.7393 281.9407,314.9013 283.7377,313.2263 C285.5327,311.5493 286.4307,309.3703 286.4307,306.6883 C286.4307,302.9213 284.3907,299.8193 280.3107,297.3823" id="Fill-52" fill="#004365" mask="url(#mask-2)"></path>
        </g>
    </g>
</svg>